<svg width="900" height="780" viewBox="0 0 900 780" xmlns="http://www.w3.org/2000/svg">
<defs>
  <marker id="arrow" viewBox="0 0 10 10" refX="8" refY="5" markerWidth="6" markerHeight="6" orient="auto-start-reverse">
    <path d="M2 1L8 5L2 9" fill="none" stroke="#378ADD" stroke-width="1.5" stroke-linecap="round" stroke-linejoin="round"/>
  </marker>
  <marker id="arrow-green" viewBox="0 0 10 10" refX="8" refY="5" markerWidth="6" markerHeight="6" orient="auto-start-reverse">
    <path d="M2 1L8 5L2 9" fill="none" stroke="#1D9E75" stroke-width="1.5" stroke-linecap="round" stroke-linejoin="round"/>
  </marker>
  <marker id="arrow-amber" viewBox="0 0 10 10" refX="8" refY="5" markerWidth="6" markerHeight="6" orient="auto-start-reverse">
    <path d="M2 1L8 5L2 9" fill="none" stroke="#BA7517" stroke-width="1.5" stroke-linecap="round" stroke-linejoin="round"/>
  </marker>
  <style>
    text { font-family: Arial, sans-serif; }
    .th { font-size: 14px; font-weight: bold; }
    .ts { font-size: 12px; }
  </style>
</defs>

<!-- 배경 -->
<rect width="900" height="780" fill="#FFFFFF"/>

<!-- 제목 -->
<rect x="20" y="10" width="860" height="36" rx="8" fill="#1F4E79"/>
<text x="450" y="33" text-anchor="middle" fill="white" class="th">네트워크 아키텍처  —  컨테이너 인프라 구축 프로젝트</text>

<!-- Internet -->
<rect x="330" y="60" width="200" height="36" rx="8" fill="#F1EFE8" stroke="#5F5E5A" stroke-width="0.5"/>
<text x="430" y="83" text-anchor="middle" fill="#2C2C2A" class="th">Internet</text>

<!-- IGW -->
<line x1="430" y1="96" x2="430" y2="116" stroke="#378ADD" stroke-width="1.5" marker-end="url(#arrow)"/>
<rect x="315" y="116" width="230" height="36" rx="8" fill="#E6F1FB" stroke="#185FA5" stroke-width="0.5"/>
<text x="430" y="139" text-anchor="middle" fill="#0C447C" class="th">Internet Gateway  (IGW)</text>

<!-- Project VPC -->
<rect x="30" y="168" width="840" height="528" rx="20" fill="#E1F5EE" stroke="#0F6E56" stroke-width="0.5"/>
<text x="55" y="196" fill="#085041" class="th">Project-VPC  10.0.0.0/16</text>

<!-- IGW → VPC -->
<line x1="430" y1="152" x2="430" y2="182" stroke="#378ADD" stroke-width="1.5" marker-end="url(#arrow)"/>

<!-- Public 존 -->
<rect x="50" y="204" width="800" height="134" rx="12" fill="#B5D4F4" stroke="#185FA5" stroke-width="0.5"/>
<text x="70" y="224" fill="#0C447C" class="th">Public Subnets  (ap-northeast-2a  /  ap-northeast-2b)</text>

<!-- Public SN1 -->
<rect x="68" y="232" width="340" height="90" rx="8" fill="#E6F1FB" stroke="#185FA5" stroke-width="0.5"/>
<text x="238" y="256" text-anchor="middle" fill="#0C447C" class="th">Public-SN-1</text>
<text x="238" y="274" text-anchor="middle" fill="#185FA5" class="ts">10.0.1.0/24  ap-northeast-2a</text>
<text x="238" y="292" text-anchor="middle" fill="#185FA5" class="ts">NAT GW  /  ALB  /  eks-man-wa</text>
<text x="238" y="310" text-anchor="middle" fill="#185FA5" class="ts">Route: 0.0.0.0/0 → IGW</text>

<!-- Public SN2 -->
<rect x="452" y="232" width="380" height="90" rx="8" fill="#E6F1FB" stroke="#185FA5" stroke-width="0.5"/>
<text x="642" y="256" text-anchor="middle" fill="#0C447C" class="th">Public-SN-2</text>
<text x="642" y="274" text-anchor="middle" fill="#185FA5" class="ts">10.0.2.0/24  ap-northeast-2b</text>
<text x="642" y="292" text-anchor="middle" fill="#185FA5" class="ts">ALB (멀티 AZ)</text>
<text x="642" y="310" text-anchor="middle" fill="#185FA5" class="ts">Route: 0.0.0.0/0 → IGW</text>

<!-- ALB -->
<line x1="430" y1="338" x2="430" y2="358" stroke="#7F77DD" stroke-width="1.5" marker-end="url(#arrow)"/>
<rect x="280" y="358" width="300" height="50" rx="8" fill="#EEEDFE" stroke="#534AB7" stroke-width="0.5"/>
<text x="430" y="378" text-anchor="middle" fill="#3C3489" class="th">Application Load Balancer</text>
<text x="430" y="396" text-anchor="middle" fill="#534AB7" class="ts">Project-ALB  /  internet-facing  /  TCP 80·443</text>

<!-- NAT GW -->
<rect x="68" y="358" width="160" height="50" rx="8" fill="#FAEEDA" stroke="#854F0B" stroke-width="0.5"/>
<text x="148" y="378" text-anchor="middle" fill="#633806" class="th">NAT Gateway</text>
<text x="148" y="396" text-anchor="middle" fill="#854F0B" class="ts">아웃바운드 전용</text>

<!-- eks-man-wa -->
<rect x="660" y="358" width="170" height="50" rx="8" fill="#F1EFE8" stroke="#5F5E5A" stroke-width="0.5"/>
<text x="745" y="378" text-anchor="middle" fill="#2C2C2A" class="th">eks-man-wa</text>
<text x="745" y="396" text-anchor="middle" fill="#5F5E5A" class="ts">관리 EC2  /  IAM Role</text>

<!-- Private 존 -->
<rect x="50" y="428" width="800" height="170" rx="12" fill="#9FE1CB" stroke="#0F6E56" stroke-width="0.5"/>
<text x="70" y="450" fill="#04342C" class="th">Private Subnets  (ap-northeast-2a  /  ap-northeast-2b)  —  워커노드 전용</text>

<!-- Private SN1 -->
<rect x="68" y="458" width="340" height="124" rx="8" fill="#E1F5EE" stroke="#0F6E56" stroke-width="0.5"/>
<text x="238" y="480" text-anchor="middle" fill="#085041" class="th">Private-SN-1</text>
<text x="238" y="498" text-anchor="middle" fill="#0F6E56" class="ts">10.0.11.0/24  ap-northeast-2a</text>
<text x="238" y="516" text-anchor="middle" fill="#0F6E56" class="ts">Route: 0.0.0.0/0 → NAT GW</text>
<rect x="84" y="528" width="308" height="40" rx="6" fill="#1D9E75" stroke="#085041" stroke-width="0.5"/>
<text x="238" y="544" text-anchor="middle" fill="white" class="th">Worker Node 1</text>
<text x="238" y="560" text-anchor="middle" fill="#E1F5EE" class="ts">m7i-flex.large  /  SSM 접근</text>

<!-- Private SN2 -->
<rect x="452" y="458" width="380" height="124" rx="8" fill="#E1F5EE" stroke="#0F6E56" stroke-width="0.5"/>
<text x="642" y="480" text-anchor="middle" fill="#085041" class="th">Private-SN-2</text>
<text x="642" y="498" text-anchor="middle" fill="#0F6E56" class="ts">10.0.12.0/24  ap-northeast-2b</text>
<text x="642" y="516" text-anchor="middle" fill="#0F6E56" class="ts">Route: 0.0.0.0/0 → NAT GW</text>
<rect x="468" y="528" width="348" height="40" rx="6" fill="#1D9E75" stroke="#085041" stroke-width="0.5"/>
<text x="642" y="544" text-anchor="middle" fill="white" class="th">Worker Node 2</text>
<text x="642" y="560" text-anchor="middle" fill="#E1F5EE" class="ts">m7i-flex.large  /  SSM 접근</text>

<!-- ALB → Worker Nodes -->
<path d="M380 408 L238 408 L238 528" stroke="#7F77DD" stroke-width="1" fill="none" stroke-dasharray="5 3" marker-end="url(#arrow-green)"/>
<path d="M480 408 L642 408 L642 528" stroke="#7F77DD" stroke-width="1" fill="none" stroke-dasharray="5 3" marker-end="url(#arrow-green)"/>

<!-- NAT GW → Private -->
<path d="M148 408 L148 458" stroke="#BA7517" stroke-width="1" fill="none" stroke-dasharray="5 3" marker-end="url(#arrow-amber)"/>

<!-- EKS Control Plane -->
<rect x="50" y="618" width="800" height="68" rx="12" fill="#EEEDFE" stroke="#534AB7" stroke-width="0.5"/>
<text x="70" y="642" fill="#26215C" class="th">EKS Control Plane  (AWS Managed)</text>
<text x="70" y="660" fill="#534AB7" class="ts">project-eks  /  Kubernetes 1.34  /  OIDC Provider  /  CloudWatch 로깅  /  vpc-cni · coredns · kube-proxy · ebs-csi-driver</text>

<!-- Worker → Control Plane -->
<line x1="238" y1="582" x2="238" y2="618" stroke="#1D9E75" stroke-width="1" marker-end="url(#arrow-green)"/>
<line x1="642" y1="582" x2="642" y2="618" stroke="#1D9E75" stroke-width="1" marker-end="url(#arrow-green)"/>

<!-- eks-man-wa → Control Plane -->
<path d="M745 408 L745 652 L850 652" stroke="#888780" stroke-width="1" fill="none" stroke-dasharray="5 3"/>

<!-- 범례 -->
<rect x="30" y="706" width="840" height="50" rx="8" fill="#F1EFE8" stroke="#D3D1C7" stroke-width="0.5"/>
<text x="50" y="726" fill="#444441" class="ts">범례:</text>
<line x1="100" y1="722" x2="140" y2="722" stroke="#378ADD" stroke-width="1.5" marker-end="url(#arrow)"/>
<text x="148" y="726" fill="#444441" class="ts">주 트래픽</text>
<line x1="230" y1="722" x2="270" y2="722" stroke="#7F77DD" stroke-width="1" stroke-dasharray="5 3"/>
<text x="278" y="726" fill="#444441" class="ts">ALB 분산</text>
<line x1="360" y1="722" x2="400" y2="722" stroke="#BA7517" stroke-width="1" stroke-dasharray="5 3"/>
<text x="408" y="726" fill="#444441" class="ts">NAT 아웃바운드</text>
<line x1="530" y1="722" x2="570" y2="722" stroke="#1D9E75" stroke-width="1" marker-end="url(#arrow-green)"/>
<text x="578" y="726" fill="#444441" class="ts">EKS 연결</text>
<line x1="660" y1="722" x2="700" y2="722" stroke="#888780" stroke-width="1" stroke-dasharray="5 3"/>
<text x="708" y="726" fill="#444441" class="ts">관리 경로</text>

<text x="50" y="746" fill="#888780" class="ts">project-network.yaml + project-eks-cluster.yaml  /  리전: ap-northeast-2 (서울)</text>
</svg>
