<svg width="1080" height="1020" viewBox="0 0 1080 1020" xmlns="http://www.w3.org/2000/svg">
<defs>
  <marker id="arr" viewBox="0 0 10 10" refX="8" refY="5" markerWidth="6" markerHeight="6" orient="auto">
    <path d="M2 2L8 5L2 8" fill="none" stroke="#555" stroke-width="1.5" stroke-linecap="round"/>
  </marker>
  <marker id="arr-blue" viewBox="0 0 10 10" refX="8" refY="5" markerWidth="6" markerHeight="6" orient="auto">
    <path d="M2 2L8 5L2 8" fill="none" stroke="#1565C0" stroke-width="1.5" stroke-linecap="round"/>
  </marker>
  <marker id="arr-green" viewBox="0 0 10 10" refX="8" refY="5" markerWidth="6" markerHeight="6" orient="auto">
    <path d="M2 2L8 5L2 8" fill="none" stroke="#1D9E75" stroke-width="1.5" stroke-linecap="round"/>
  </marker>
  <marker id="arr-orange" viewBox="0 0 10 10" refX="8" refY="5" markerWidth="6" markerHeight="6" orient="auto">
    <path d="M2 2L8 5L2 8" fill="none" stroke="#D4760A" stroke-width="1.5" stroke-linecap="round"/>
  </marker>
  <marker id="arr-purple" viewBox="0 0 10 10" refX="8" refY="5" markerWidth="6" markerHeight="6" orient="auto">
    <path d="M2 2L8 5L2 8" fill="none" stroke="#5E35B1" stroke-width="1.5" stroke-linecap="round"/>
  </marker>
  <marker id="arr-red" viewBox="0 0 10 10" refX="8" refY="5" markerWidth="6" markerHeight="6" orient="auto">
    <path d="M2 2L8 5L2 8" fill="none" stroke="#C62828" stroke-width="1.5" stroke-linecap="round"/>
  </marker>
  <style>
    text { font-family: 'Segoe UI', Arial, sans-serif; }
    .title { font-size: 15px; font-weight: bold; }
    .section { font-size: 13px; font-weight: bold; }
    .label { font-size: 12px; font-weight: bold; }
    .sub { font-size: 11px; }
    .tiny { font-size: 10px; }
    .arrow-label { font-size: 9px; fill: #888; }
  </style>
</defs>

<!-- Background -->
<rect width="1080" height="1020" fill="#FAFAFA"/>

<!-- ══════════════════════════════════════ -->
<!-- Title -->
<!-- ══════════════════════════════════════ -->
<rect x="20" y="10" width="1040" height="40" rx="8" fill="#1F4E79"/>
<text x="540" y="36" text-anchor="middle" fill="white" class="title">컨테이너 인프라 프로젝트 — 전체 아키텍처  (GitOps CI/CD + EKS)</text>

<!-- ══════════════════════════════════════ -->
<!-- CI/CD Pipeline -->
<!-- ══════════════════════════════════════ -->
<rect x="20" y="64" width="1040" height="196" rx="12" fill="#F5F5F5" stroke="#E0E0E0" stroke-width="1"/>
<text x="40" y="86" fill="#333" class="section">CI/CD Pipeline</text>

<!-- Step numbers -->
<circle cx="88" cy="130" r="10" fill="#1565C0"/>
<text x="88" y="134" text-anchor="middle" fill="white" class="tiny" font-weight="bold">1</text>

<!-- Developer -->
<rect x="40" y="102" width="108" height="44" rx="8" fill="#E8F5E9" stroke="#43A047" stroke-width="1"/>
<text x="94" y="121" text-anchor="middle" fill="#2E7D32" class="label">Developer</text>
<text x="94" y="136" text-anchor="middle" fill="#43A047" class="tiny">git push</text>

<!-- Arrow 1→2 -->
<line x1="148" y1="124" x2="194" y2="124" stroke="#555" stroke-width="1.5" marker-end="url(#arr)"/>

<circle cx="258" cy="130" r="10" fill="#1565C0"/>
<text x="258" y="134" text-anchor="middle" fill="white" class="tiny" font-weight="bold">2</text>

<!-- GitHub app repo -->
<rect x="194" y="102" width="150" height="44" rx="8" fill="#FAFAFA" stroke="#424242" stroke-width="1"/>
<text x="269" y="121" text-anchor="middle" fill="#212121" class="label">GitHub (app)</text>
<text x="269" y="136" text-anchor="middle" fill="#757575" class="tiny">소스코드 + CI 정의</text>

<!-- Arrow 2→3 -->
<line x1="344" y1="124" x2="400" y2="124" stroke="#555" stroke-width="1.5" marker-end="url(#arr)"/>
<text x="372" y="118" text-anchor="middle" class="arrow-label">trigger</text>

<circle cx="468" cy="130" r="10" fill="#1565C0"/>
<text x="468" y="134" text-anchor="middle" fill="white" class="tiny" font-weight="bold">3</text>

<!-- GitHub Actions -->
<rect x="400" y="102" width="170" height="44" rx="8" fill="#E3F2FD" stroke="#1565C0" stroke-width="1"/>
<text x="485" y="121" text-anchor="middle" fill="#0D47A1" class="label">GitHub Actions</text>
<text x="485" y="136" text-anchor="middle" fill="#1565C0" class="tiny">Docker Build + Push</text>

<!-- Arrow 3→4 (ECR) -->
<line x1="570" y1="124" x2="640" y2="124" stroke="#D4760A" stroke-width="1.5" marker-end="url(#arr-orange)"/>
<text x="605" y="118" text-anchor="middle" class="arrow-label">image push</text>

<circle cx="708" cy="130" r="10" fill="#D4760A"/>
<text x="708" y="134" text-anchor="middle" fill="white" class="tiny" font-weight="bold">4</text>

<!-- ECR -->
<rect x="640" y="102" width="150" height="44" rx="8" fill="#FFF3E0" stroke="#E65100" stroke-width="1"/>
<text x="715" y="121" text-anchor="middle" fill="#BF360C" class="label">Amazon ECR</text>
<text x="715" y="136" text-anchor="middle" fill="#E65100" class="tiny">project-app 이미지</text>

<!-- Arrow 3→5 (GHA down to manifests) -->
<path d="M485 146 L485 174 L370 174" stroke="#555" stroke-width="1.5" fill="none" marker-end="url(#arr)"/>
<text x="436" y="167" text-anchor="middle" class="arrow-label">image tag update</text>

<circle cx="280" cy="200" r="10" fill="#1565C0"/>
<text x="280" y="204" text-anchor="middle" fill="white" class="tiny" font-weight="bold">5</text>

<!-- manifests repo -->
<rect x="194" y="168" width="170" height="44" rx="8" fill="#FAFAFA" stroke="#424242" stroke-width="1"/>
<text x="279" y="187" text-anchor="middle" fill="#212121" class="label">GitHub (manifests)</text>
<text x="279" y="202" text-anchor="middle" fill="#757575" class="tiny">K8s YAML (배포 정의)</text>

<!-- Arrow 5→6 (manifests → ArgoCD) -->
<line x1="364" y1="190" x2="440" y2="190" stroke="#5E35B1" stroke-width="1.5" marker-end="url(#arr-purple)"/>
<text x="402" y="184" text-anchor="middle" class="arrow-label">watch</text>

<circle cx="508" cy="200" r="10" fill="#5E35B1"/>
<text x="508" y="204" text-anchor="middle" fill="white" class="tiny" font-weight="bold">6</text>

<!-- ArgoCD -->
<rect x="440" y="168" width="160" height="44" rx="8" fill="#EDE7F6" stroke="#5E35B1" stroke-width="1"/>
<text x="520" y="187" text-anchor="middle" fill="#4527A0" class="label">ArgoCD (CD)</text>
<text x="520" y="202" text-anchor="middle" fill="#5E35B1" class="tiny">Git ↔ 클러스터 자동 동기화</text>

<!-- Arrow: ArgoCD deploy down -->
<path d="M520 212 L520 240 L520 290" stroke="#5E35B1" stroke-width="1.5" fill="none" stroke-dasharray="5 3" marker-end="url(#arr-purple)"/>
<text x="536" y="254" fill="#5E35B1" class="tiny">deploy</text>

<!-- User traffic -->
<rect x="880" y="102" width="130" height="44" rx="8" fill="#FCE4EC" stroke="#C62828" stroke-width="1"/>
<text x="945" y="121" text-anchor="middle" fill="#B71C1C" class="label">User / Client</text>
<text x="945" y="136" text-anchor="middle" fill="#C62828" class="tiny">HTTP 요청</text>

<!-- Arrow: User down to Internet -->
<path d="M945 146 L945 314" stroke="#C62828" stroke-width="1.5" fill="none" marker-end="url(#arr-red)"/>

<!-- ══════════════════════════════════════ -->
<!-- AWS Cloud -->
<!-- ══════════════════════════════════════ -->
<rect x="20" y="276" width="1040" height="700" rx="16" fill="#FFF8E1" stroke="#F9A825" stroke-width="1.5"/>
<text x="40" y="298" fill="#E65100" class="section">AWS Cloud  (eu-central-1 / Frankfurt)</text>

<!-- Internet -->
<rect x="440" y="306" width="200" height="30" rx="8" fill="#ECEFF1" stroke="#78909C" stroke-width="0.5"/>
<text x="540" y="326" text-anchor="middle" fill="#37474F" class="label">Internet</text>

<!-- Arrow: Internet → IGW -->
<line x1="540" y1="336" x2="540" y2="356" stroke="#1565C0" stroke-width="1.5" marker-end="url(#arr-blue)"/>

<!-- IGW -->
<rect x="420" y="356" width="240" height="30" rx="8" fill="#E3F2FD" stroke="#1565C0" stroke-width="0.5"/>
<text x="540" y="376" text-anchor="middle" fill="#0D47A1" class="label">Internet Gateway  (IGW)</text>

<!-- Arrow: IGW → VPC -->
<line x1="540" y1="386" x2="540" y2="408" stroke="#1565C0" stroke-width="1.5" marker-end="url(#arr-blue)"/>

<!-- ══════════════════════════════════════ -->
<!-- VPC -->
<!-- ══════════════════════════════════════ -->
<rect x="40" y="408" width="1000" height="548" rx="14" fill="#E8F5E9" stroke="#2E7D32" stroke-width="1"/>
<text x="60" y="430" fill="#1B5E20" class="section">VPC  10.0.0.0/16</text>

<!-- Public Subnets Zone -->
<rect x="60" y="440" width="960" height="130" rx="10" fill="#BBDEFB" stroke="#1565C0" stroke-width="0.5"/>
<text x="80" y="460" fill="#0D47A1" class="label">Public Subnets  —  Route: 0.0.0.0/0 → IGW</text>

<!-- Public SN-1 -->
<rect x="80" y="468" width="450" height="90" rx="8" fill="#E3F2FD" stroke="#1565C0" stroke-width="0.5"/>
<text x="305" y="486" text-anchor="middle" fill="#0D47A1" class="sub">Public-SN-1  (10.0.1.0/24 · eu-central-1a)</text>

<!-- NAT GW -->
<rect x="95" y="494" width="110" height="50" rx="6" fill="#FFF3E0" stroke="#E65100" stroke-width="0.5"/>
<text x="150" y="514" text-anchor="middle" fill="#BF360C" class="label">NAT GW</text>
<text x="150" y="530" text-anchor="middle" fill="#E65100" class="tiny">아웃바운드 전용</text>

<!-- ALB (SN-1 side) -->
<rect x="220" y="494" width="130" height="50" rx="6" fill="#EDE7F6" stroke="#5E35B1" stroke-width="0.5"/>
<text x="285" y="514" text-anchor="middle" fill="#4527A0" class="label">ALB</text>
<text x="285" y="530" text-anchor="middle" fill="#5E35B1" class="tiny">internet-facing</text>

<!-- eks-man-wa -->
<rect x="365" y="494" width="150" height="50" rx="6" fill="#ECEFF1" stroke="#546E7A" stroke-width="0.5"/>
<text x="440" y="514" text-anchor="middle" fill="#37474F" class="label">eks-man-wa</text>
<text x="440" y="530" text-anchor="middle" fill="#546E7A" class="tiny">관리 EC2 / SSH+IAM</text>

<!-- Public SN-2 -->
<rect x="550" y="468" width="450" height="90" rx="8" fill="#E3F2FD" stroke="#1565C0" stroke-width="0.5"/>
<text x="775" y="486" text-anchor="middle" fill="#0D47A1" class="sub">Public-SN-2  (10.0.2.0/24 · eu-central-1b)</text>

<!-- ALB (SN-2 side) -->
<rect x="620" y="494" width="130" height="50" rx="6" fill="#EDE7F6" stroke="#5E35B1" stroke-width="0.5"/>
<text x="685" y="514" text-anchor="middle" fill="#4527A0" class="label">ALB</text>
<text x="685" y="530" text-anchor="middle" fill="#5E35B1" class="tiny">멀티 AZ 분산</text>

<!-- ALB span dashed line -->
<line x1="350" y1="519" x2="620" y2="519" stroke="#5E35B1" stroke-width="1" stroke-dasharray="4 3"/>
<text x="485" y="513" text-anchor="middle" fill="#5E35B1" class="tiny">TCP 80 · 443</text>

<!-- Private Subnets Zone -->
<rect x="60" y="586" width="960" height="244" rx="10" fill="#C8E6C9" stroke="#2E7D32" stroke-width="0.5"/>
<text x="80" y="606" fill="#1B5E20" class="label">Private Subnets  —  Route: 0.0.0.0/0 → NAT GW  (외부 직접 노출 차단)</text>

<!-- Private SN-1 -->
<rect x="80" y="614" width="450" height="204" rx="8" fill="#E8F5E9" stroke="#2E7D32" stroke-width="0.5"/>
<text x="305" y="632" text-anchor="middle" fill="#1B5E20" class="sub">Private-SN-1  (10.0.11.0/24 · eu-central-1a)</text>

<!-- Worker Node 1 -->
<rect x="95" y="640" width="420" height="166" rx="6" fill="#1B5E20" stroke="#0D3B10" stroke-width="0.5"/>
<text x="305" y="660" text-anchor="middle" fill="white" class="label">Worker Node 1  (m7i-flex.large / SSM)</text>

<!-- Pod: App -->
<rect x="110" y="672" width="120" height="122" rx="5" fill="#E3F2FD" stroke="#1565C0" stroke-width="0.5"/>
<text x="170" y="692" text-anchor="middle" fill="#0D47A1" class="label">App Pod</text>
<line x1="120" y1="698" x2="220" y2="698" stroke="#90CAF9" stroke-width="0.5"/>
<text x="170" y="714" text-anchor="middle" fill="#1565C0" class="tiny">FastAPI</text>
<text x="170" y="728" text-anchor="middle" fill="#1565C0" class="tiny">:8000</text>
<text x="170" y="748" text-anchor="middle" fill="#1565C0" class="tiny">핫딜 쿠폰</text>
<text x="170" y="762" text-anchor="middle" fill="#1565C0" class="tiny">서비스</text>
<text x="170" y="782" text-anchor="middle" fill="#1976D2" class="tiny">replicas: 2</text>

<!-- Pod: PostgreSQL -->
<rect x="245" y="672" width="120" height="122" rx="5" fill="#E8F5E9" stroke="#2E7D32" stroke-width="0.5"/>
<text x="305" y="692" text-anchor="middle" fill="#1B5E20" class="label">DB Pod</text>
<line x1="255" y1="698" x2="355" y2="698" stroke="#A5D6A7" stroke-width="0.5"/>
<text x="305" y="714" text-anchor="middle" fill="#2E7D32" class="tiny">PostgreSQL 16</text>
<text x="305" y="728" text-anchor="middle" fill="#2E7D32" class="tiny">:5432</text>
<text x="305" y="748" text-anchor="middle" fill="#2E7D32" class="tiny">EBS gp3 PV</text>
<text x="305" y="762" text-anchor="middle" fill="#2E7D32" class="tiny">10Gi</text>
<text x="305" y="782" text-anchor="middle" fill="#388E3C" class="tiny">replicas: 1</text>

<!-- Pod: ArgoCD -->
<rect x="380" y="672" width="120" height="122" rx="5" fill="#EDE7F6" stroke="#5E35B1" stroke-width="0.5"/>
<text x="440" y="692" text-anchor="middle" fill="#4527A0" class="label">ArgoCD</text>
<line x1="390" y1="698" x2="490" y2="698" stroke="#CE93D8" stroke-width="0.5"/>
<text x="440" y="714" text-anchor="middle" fill="#5E35B1" class="tiny">GitOps CD</text>
<text x="440" y="728" text-anchor="middle" fill="#5E35B1" class="tiny">Server</text>
<text x="440" y="748" text-anchor="middle" fill="#5E35B1" class="tiny">Git 감시 →</text>
<text x="440" y="762" text-anchor="middle" fill="#5E35B1" class="tiny">자동 Sync</text>
<text x="440" y="782" text-anchor="middle" fill="#7E57C2" class="tiny">namespace:</text>

<!-- Private SN-2 -->
<rect x="550" y="614" width="450" height="204" rx="8" fill="#E8F5E9" stroke="#2E7D32" stroke-width="0.5"/>
<text x="775" y="632" text-anchor="middle" fill="#1B5E20" class="sub">Private-SN-2  (10.0.12.0/24 · eu-central-1b)</text>

<!-- Worker Node 2 -->
<rect x="565" y="640" width="420" height="166" rx="6" fill="#1B5E20" stroke="#0D3B10" stroke-width="0.5"/>
<text x="775" y="660" text-anchor="middle" fill="white" class="label">Worker Node 2  (m7i-flex.large / SSM)</text>

<!-- Pod: App (replica) -->
<rect x="580" y="672" width="120" height="122" rx="5" fill="#E3F2FD" stroke="#1565C0" stroke-width="0.5"/>
<text x="640" y="692" text-anchor="middle" fill="#0D47A1" class="label">App Pod</text>
<line x1="590" y1="698" x2="690" y2="698" stroke="#90CAF9" stroke-width="0.5"/>
<text x="640" y="714" text-anchor="middle" fill="#1565C0" class="tiny">FastAPI</text>
<text x="640" y="728" text-anchor="middle" fill="#1565C0" class="tiny">:8000</text>
<text x="640" y="748" text-anchor="middle" fill="#1565C0" class="tiny">핫딜 쿠폰</text>
<text x="640" y="762" text-anchor="middle" fill="#1565C0" class="tiny">서비스</text>
<text x="640" y="782" text-anchor="middle" fill="#1976D2" class="tiny">replicas: 2</text>

<!-- Scalable pods -->
<rect x="715" y="672" width="120" height="122" rx="5" fill="#FAFAFA" stroke="#BDBDBD" stroke-width="0.5" stroke-dasharray="5 3"/>
<text x="775" y="726" text-anchor="middle" fill="#757575" class="sub">Auto</text>
<text x="775" y="742" text-anchor="middle" fill="#757575" class="sub">Scaling</text>
<text x="775" y="762" text-anchor="middle" fill="#9E9E9E" class="tiny">maxSize: 4</text>

<!-- EKS Control Plane -->
<rect x="60" y="846" width="960" height="90" rx="10" fill="#EDE7F6" stroke="#5E35B1" stroke-width="0.5"/>
<text x="80" y="870" fill="#311B92" class="label">EKS Control Plane  (AWS Managed)  —  project-eks / Kubernetes 1.34</text>
<text x="80" y="888" fill="#5E35B1" class="tiny">OIDC Provider (IRSA)  /  CloudWatch Logging (api, audit, authenticator, controller, scheduler)</text>
<text x="80" y="904" fill="#5E35B1" class="tiny">Addons: vpc-cni  ·  coredns  ·  kube-proxy  ·  aws-ebs-csi-driver</text>
<text x="80" y="920" fill="#5E35B1" class="tiny">IAM Policies: EKSWorkerNode  ·  EKS_CNI  ·  ECR ReadOnly  ·  SSM ManagedInstance</text>

<!-- ══════════════════════════════════════ -->
<!-- Connection Arrows -->
<!-- ══════════════════════════════════════ -->

<!-- ALB → Worker Node 1 -->
<path d="M285 544 L285 580 L305 580 L305 640" stroke="#5E35B1" stroke-width="1.5" fill="none" stroke-dasharray="5 3" marker-end="url(#arr-purple)"/>
<!-- ALB → Worker Node 2 -->
<path d="M685 544 L685 580 L775 580 L775 640" stroke="#5E35B1" stroke-width="1.5" fill="none" stroke-dasharray="5 3" marker-end="url(#arr-purple)"/>

<!-- NAT GW → Private zone -->
<path d="M150 544 L150 586" stroke="#D4760A" stroke-width="1" fill="none" stroke-dasharray="5 3" marker-end="url(#arr-orange)"/>

<!-- Worker Nodes → EKS CP -->
<line x1="305" y1="806" x2="305" y2="846" stroke="#1D9E75" stroke-width="1" marker-end="url(#arr-green)"/>
<line x1="775" y1="806" x2="775" y2="846" stroke="#1D9E75" stroke-width="1" marker-end="url(#arr-green)"/>

<!-- eks-man-wa → EKS CP -->
<path d="M440 544 L440 560 L980 560 L980 880 L1020 880" stroke="#78909C" stroke-width="1" fill="none" stroke-dasharray="5 3"/>
<text x="990" y="720" fill="#78909C" class="tiny" transform="rotate(90,990,720)">kubectl / eksctl</text>

<!-- ECR → Worker Nodes (image pull) -->
<path d="M790 124 L840 124 L840 730" stroke="#D4760A" stroke-width="1" fill="none" stroke-dasharray="5 3" marker-end="url(#arr-orange)"/>
<text x="852" y="500" fill="#E65100" class="tiny" transform="rotate(90,852,500)">image pull (ECR → Pod)</text>

<!-- ══════════════════════════════════════ -->
<!-- Legend -->
<!-- ══════════════════════════════════════ -->
<rect x="20" y="956" width="1040" height="50" rx="8" fill="#F5F5F5" stroke="#E0E0E0" stroke-width="0.5"/>
<text x="40" y="976" fill="#555" class="sub" font-weight="bold">범례:</text>

<line x1="90" y1="972" x2="120" y2="972" stroke="#1565C0" stroke-width="1.5" marker-end="url(#arr-blue)"/>
<text x="128" y="976" fill="#555" class="tiny">인터넷 트래픽</text>

<line x1="220" y1="972" x2="250" y2="972" stroke="#5E35B1" stroke-width="1.5" stroke-dasharray="5 3"/>
<text x="258" y="976" fill="#555" class="tiny">ALB 분산</text>

<line x1="330" y1="972" x2="360" y2="972" stroke="#D4760A" stroke-width="1" stroke-dasharray="5 3"/>
<text x="368" y="976" fill="#555" class="tiny">NAT / ECR</text>

<line x1="440" y1="972" x2="470" y2="972" stroke="#1D9E75" stroke-width="1" marker-end="url(#arr-green)"/>
<text x="478" y="976" fill="#555" class="tiny">EKS 연결</text>

<line x1="545" y1="972" x2="575" y2="972" stroke="#78909C" stroke-width="1" stroke-dasharray="5 3"/>
<text x="583" y="976" fill="#555" class="tiny">관리 경로</text>

<line x1="655" y1="972" x2="685" y2="972" stroke="#C62828" stroke-width="1.5"/>
<text x="693" y="976" fill="#555" class="tiny">사용자 트래픽</text>

<line x1="780" y1="972" x2="810" y2="972" stroke="#555" stroke-width="1.5" marker-end="url(#arr)"/>
<text x="818" y="976" fill="#555" class="tiny">CI/CD 흐름</text>

<text x="40" y="996" fill="#9E9E9E" class="tiny">de2-project1-team2-ee  /  리전: eu-central-1 (Frankfurt)  /  GitOps: GitHub Actions (CI) + ArgoCD (CD)</text>

</svg>
